<svg version="1.2" xmlns="http://www.w3.org/2000/svg" viewBox="0 0 750 500" width="750" height="500">
	<title>4990221-ai</title>
	<style>
		.s0 { fill: #d6f5ff } 
		.s1 { fill: #65bfce } 
		.s2 { fill: #91d3e2 } 
		.s3 { fill: #0055aa } 
		.s4 { fill: #1a78c6 } 
		.s5 { fill: #b56167 } 
		.s6 { fill: #f0edf2 } 
		.s7 { fill: #39657d } 
		.s8 { fill: #f4b3bd } 
		.s9 { fill: #ffffff } 
		.s10 { opacity: .5;mix-blend-mode: multiply;fill: #f7bfc5 } 
		.s11 { opacity: .5;mix-blend-mode: multiply;fill: #0055aa } 
		.s12 { fill: #dd4c38 } 
		.s13 { fill: #df9296 } 
		.s14 { fill: #cd4438 } 
		.s15 { mix-blend-mode: multiply;fill: #dd4c38 } 
		.s16 { fill: #f7bfc5 } 
		.s17 { fill: #482320 } 
		.s18 { fill: #e4dfe8 } 
		.s19 { fill: #b1a9b9 } 
		.s20 { fill: #75decb } 
		.s21 { fill: #ffb0c9 } 
		.s22 { fill: #091143 } 
	</style>
	<g id="OBJECTS">
		<g id="&lt;Group&gt;">
			<g id="&lt;Group&gt;">
				<g id="&lt;Group&gt;">
					<path id="&lt;Path&gt;" class="s0" d="m90.3 446.8c-5.2-7.8-52.5-51.1-33.8-142.1c15.9-76.8 72.7-66.2 65.9-146.7c-6.8-81.7 89.5-120.2 150.1-112.8c57.8 7.1 82.9 23.5 118.9 57.8c35.9 34.3 80.8 15.5 115.9-2.5c35.1-18 98-18.8 135.6 27c37.5 45.7 11.4 92.2 19.6 114.3c8.1 22 41.6 62.9 34.3 124.9c-5.8 48.5-16 72.1-20.2 80.1z"/>
					<g id="&lt;Group&gt;">
						<path id="&lt;Path&gt;" class="s1" d="m567.4 450h-457.6v-156.6h457.6z"/>
						<g id="&lt;Group&gt;">
							<g id="&lt;Group&gt;">
								<path id="&lt;Path&gt;" class="s2" d="m575.5 450h-9.3v-156.6h-455.1v156.6h-9.4v-166h473.8z"/>
							</g>
							<g id="&lt;Group&gt;">
								<path id="&lt;Path&gt;" class="s2" d="m570.9 373.1h-464.5v-9.4h464.5z"/>
							</g>
							<g id="&lt;Group&gt;">
								<g id="&lt;Group&gt;">
									<path id="&lt;Path&gt;" class="s2" d="m259.2 446.8h-9.3v-158.1h9.3z"/>
								</g>
								<g id="&lt;Group&gt;">
									<path id="&lt;Path&gt;" class="s2" d="m427.3 446.8h-9.3v-158.1h9.3z"/>
								</g>
							</g>
						</g>
					</g>
					<g id="&lt;Group&gt;">
						<g id="&lt;Group&gt;">
							<path id="&lt;Path&gt;" class="s3" d="m137.5 449.5q-46.7-101.6-29.1-134.2c17.5-32.7 91-24.6 107.3 5.8q16.4 30.3 40.9 128.4z"/>
							<path id="&lt;Path&gt;" class="s4" d="m256.6 449.5h-69.5c-19.8-33.5-59-117.6-40.1-136.5c17.1-17.1 44.6-9.3 58.2-3.8c4.5 3.5 8.1 7.4 10.5 11.9q16.4 30.3 40.9 128.4z"/>
							<g id="&lt;Group&gt;">
								<path id="&lt;Path&gt;" class="s4" d="m513.4 449.5q24.5-98.1 40.8-128.4c16.4-30.3 89.9-38.5 107.4-5.8q17.5 32.6-29.2 134.2z"/>
								<path id="&lt;Path&gt;" class="s3" d="m626.6 320.2c11.1 21.6-20.2 94.6-36.2 129.3h-77q24.5-98.1 40.8-128.4c3.5-6.4 9.5-11.9 17-16.1c21.9-1.9 47.4-0.3 55.4 15.2z"/>
							</g>
							<g id="&lt;Group&gt;">
								<g id="&lt;Group&gt;">
									<path id="&lt;Path&gt;" class="s5" d="m396.6 389.9q9.2 2 13.9 2c4.8 0 18.5-7.2 21.2-4.5c2.6 2.6-10.4 6.1-7.6 8.9c2.7 2.8 25.8 3.8 23.6 6q-2.2 2.2-15.1 1.2q16.1 1.6 16.1 3.8q0 2.1-15.9 0.7q14.1 2.1 12.1 4q-1.9 1.9-13.2 0q10 1.5 7.5 4c-0.8 0.8-16.5 0.2-23.5-3c-7-3.2-10-6.7-11.3-6.7q-1.2 0-14.6-2.4z"/>
									<path id="&lt;Path&gt;" class="s6" d="m308 276.6q11 73.6 26.5 83.9q15.4 10.3 64.6 24.3q3 17.6-8.8 27.2q-55.8-11-75.7-25c-19.8-14-43.3-98.5-40.4-107.3q2.9-8.8 33.8-3.1z"/>
								</g>
								<g id="&lt;Group&gt;">
									<g id="&lt;Group&gt;">
										<path id="&lt;Path&gt;" class="s7" d="m321.1 262.5c-0.4 0-0.7 0-0.7-0.1l0.4-2.1c0.1 0 1.5 0.3 3-1.3c3.2-3.2 7.6-14.1 1.2-51.7l2.2-0.4c6.3 36.9 2.4 49.6-1.9 53.8c-1.7 1.6-3.3 1.8-4.2 1.8z"/>
									</g>
									<g id="&lt;Group&gt;">
										<path id="&lt;Path&gt;" class="s8" d="m352 226.1c-1.1 1.2-4.3 1.5-5.8 1.6c-1.1 4.5-2.4 8.5-4 11.5c-8 14.5-19.8 11.8-30.1 7.8q-5.6 1.1-6.4 6.1q-0.8 4.9-3.3 16l-28.1-14.7q6.5-16.9 7.5-23c0.9-6.1-11-24.4 2.1-51.2q13.2-26.8 44.5-12.5q18.1 4 19.7 21c0.8 8.1 0.8 17.4 0 26.2c1.6 3 5.1 10.1 3.9 11.2z"/>
										<path id="&lt;Path&gt;" class="s9" d="m337.3 238q-2.8 0-3.1-8.4l8.9 2.5q-3 5.9-5.8 5.9z"/>
										<circle id="&lt;Path&gt;" class="s7" cx="341.5" cy="209.8" r="2.9"/>
										<path id="&lt;Path&gt;" class="s7" d="m342.8 198.6q4.8 0 3.6 4.9q-6.2-1.2-12.2 0q3.8-4.9 8.6-4.9z"/>
										<path id="&lt;Path&gt;" class="s3" d="m350.2 161.7c6-1.1 11.8 2.4 13.6 8.2c1.2 4 1.9 8.5 1.2 12.9c-1.7 11.4-14 14.1-23.8 11.9q-8-1.8-14.7-7.6q0.2 11.5-5.8 15.8c-5.9 4.3-3.7 9.7-6.3 9.2c-2.7-0.4 1.4-11.2-5.4-13c-6.8-1.9-8.5 10.6-4 14.6l-1.5 4.9q-6.8 9.8-14.6 10.1c-7.9 0.4-11.8-3.4-16.4-19c-4.6-15.5-6.3-33.4 2.2-45.3c8.5-11.9 19-7.2 19.3-9.1c0.3-1.9 11.2-12 26.8-4c9.7 4.9 18.4 12.3 29.4 10.4z"/>
										<path id="&lt;Path&gt;" class="s10" d="m312.1 247q-5.6 1.1-6.4 6.1q-7.1-17.9-4-21.7q-2.6 5.7 10.4 15.6z"/>
										<path id="&lt;Path&gt;" class="s11" d="m341.2 194.7q-8-1.8-14.7-7.6q0.2 11.5-5.8 15.8c-5.9 4.3-3.7 9.7-6.3 9.2c-2.7-0.4 1.4-11.2-5.4-13c-6.8-1.9-8.5 10.6-4 14.6l-1.5 4.9q-6.8 9.8-14.6 10.1c-7.9 0.4-11.8-3.4-16.4-19c-1.4-4.6-2.5-9.4-3.1-14.2c7.3 7.2 20.2 14.7 34.2 0.5c8.7-9.1 8.8-15.7 9.7-22.6c4.1 4.6 29.5 18.8 51.6 10.2c-2.3 10.7-14.1 13.2-23.7 11.1z"/>
									</g>
									<g id="&lt;Group&gt;">
										<g id="&lt;Group&gt;">
											<path id="&lt;Path&gt;" class="s7" d="m371.6 375.4q-3.9 0-8.1-0.9c-37.6-7.7-43.4-101.8-43.9-112.3c-11.6-4.1-12.9-49.8-13.1-55.1h2.2c0.3 14.3 3.1 51.7 12.1 53.2l0.9 0.2v0.8c0 1.1 4.9 103.4 42.2 111.1c27.3 5.6 42.9-18.5 56.7-39.7c5.1-8 10-15.5 15.1-20.6c18.1-18.1 29.4-18.4 29.9-18.4v2.2c-0.1 0-11 0.4-28.4 17.8c-4.9 4.9-9.7 12.3-14.8 20.2c-12.1 18.7-26.9 41.5-50.8 41.5z"/>
										</g>
										<g id="&lt;Group&gt;">
											<circle id="&lt;Path&gt;" class="s9" cx="307.6" cy="207.1" r="2.6"/>
										</g>
									</g>
								</g>
								<g id="&lt;Group&gt;">
									<path id="&lt;Path&gt;" class="s9" d="m269.2 251.9q26.8 6.6 45.9 33.8q16.1 23 16.5 163.6l-118.2 0.6q11.3-32.4 16.1-63.1c5.3-33.5 6.1-85.1 14.7-105.7q13.1-31.3 25-29.2z"/>
									<path id="&lt;Path&gt;" class="s6" d="m272.2 392.1c-2.1-10.3 30.6 25.8 41.4 23.1c10.8-2.7 12.4-18.8 7-28.5c-5.4-9.7-30.1-29-51.1-61.3q-20.9-32.2-15-42.5c6.8-12.6 10.8-12.2 27.3-15.8c6.9 4 25.4 12.4 32 21.8q16.1 23 17.8 160.4l-72.6 0.4c0.8-8.6 3.2-18.1 3.5-22.7c0.6-8.6 12.9 2.1 24.8 1.1c11.8-1.1-12.9-25.8-15.1-36z"/>
									<path id="&lt;Path&gt;" class="s6" d="m277.1 243.7q37.5 33.1 44.1 54.4q6.7 21.3 9 99.6l-30.3-87.9l14.7-8.8l-17.6-5.1q3.7-1.5-5.2-18.4q-8.8-16.9-22.6-25.6z"/>
								</g>
							</g>
							<g id="&lt;Group&gt;">
								<g id="&lt;Group&gt;">
									<path id="&lt;Path&gt;" class="s12" d="m401.5 421.9c2.9 5.8-0.3 10.5-1.9 11.3c-1.6 0.8-6.9-2.5-11.3-9.9q-4.4-7.4-2.1-7.1q12.5-0.2 15.3 5.7z"/>
									<path id="&lt;Path&gt;" class="s13" d="m402.4 429.8q-6.7 3.3-7.8 4.2c-1.1 1-3.4 5.4-10 9.1c-5.8 3.3-10.5 6.9-12 5c-1.6-1.8 4.5-5.4 6.3-6.9q1.8-1.5 2.3-4.3q-3.9-0.3-8.8 1.1c-4.9 1.3-10.4 9.4-12.4 8.6q-3.1-1.2 5.5-10.6q-8.8 8.8-10.1 7.2q-1.4-1.6 7.5-10.9q4.8-4.6 9.7-6.6c5-1.9 10.8-2.2 17.1-4q6.4-1.8 14.6-10.3q12.4 7.9 9.9 11.4q-1.2 1.7-11.8 7z"/>
									<path id="&lt;Path&gt;" class="s14" d="m486.5 287.3c-0.9 12.8-9.5 78.8-21.5 101.9q-11.9 23-65.4 44q2.7-3.9-2-9.4q-4.8-5.5-11.4-7.6q45.2-32.1 52-41.1c6.7-9 11.3-38.1 19.1-67.4q7.8-29.3 26.7-35.4q3.5 2.2 2.5 15z"/>
									<path id="&lt;Path&gt;" class="s15" d="m399.6 433.2q2.5-3.6-1.6-8.8c13.2-8 55.7-34.7 62.1-48.3q7.5-16.1 8.2-68.8q7.6-1.5 16.1-1.6c-3.4 25.1-10.5 66.3-19.4 83.5q-11.9 23-65.4 44z"/>
									<path id="&lt;Path&gt;" class="s16" d="m500.5 265.1q5.9-2.9 7.8-4.8q1.8-1.9 1-25h29.4q-2.6 22.6 0 25.2q2.7 2.6 5.5 2.4q5.8 16.9-14 24.1c-19.7 7.2-33.4-5.2-33.4-13.1q0-7.9 3.7-8.8z"/>
									<path id="&lt;Path&gt;" class="s10" d="m509.1 257q0.7-6.9 0.2-21.7h29.4q0 0.2 0 0.7c-4.4 15.2-20.5 19.7-29.6 21z"/>
									<path id="&lt;Path&gt;" class="s12" d="m500.5 265.1q-7.8 17.3 15.9 19.1q23.7 1.7 27.8-21.3q22.9 2.1 31.8 21.6q8.8 19.6-2.7 165.5h-126.9q18.6-47.8 18.6-76.8c0-28.9 2-75.7 8.7-93.1q2.4-6.3 26.8-15z"/>
									<path id="&lt;Path&gt;" class="s15" d="m578.8 303.5q2.5 45-5.5 146.5h-61.6c-1.7-3.2-2.6-6.5-2.6-9.7c0-17.2 30.5-17.4 33.3-26.1c2.8-8.6-10.4-12.8-12.3-19.5c-2-6.6 23.1-11.2 23.1-31.5q0-20.2 0-53.9c8.3-7.1 17.2-8.4 25.6-5.8z"/>
									<path id="&lt;Path&gt;" class="s9" d="m517.7 283.2q25.5-0.3 24.2-20.8q4.6-1.3 5.2 1.3c0.6 2.6-2 9.2-4 12.9c-2 3.7-11.5 14-31.8 11.8c-20.4-2.3-18.4-16.9-15.5-21.5q2.9-4.6 6.3-2.6q-9.9 19.1 15.6 18.9z"/>
									<path id="&lt;Path&gt;" class="s13" d="m516.9 421q-16-1.1-18.5-1.4c-2.5-0.4-4.8 0.8-8.3 3.5q-3.5 2.7-14 3.1q-7 7.6-10.1 7.3q-3-0.4 4.9-9q-8.8 8.5-12 8.1q-3.3-0.4 7.3-10.8q-14.3 9.3-15.7 7.4q-1.4-1.8 12.5-11.6q-12.1 8.1-16 6.4c-4-1.7 14.6-13.4 24.8-16.8c10.2-3.3 11.8-2.7 19.8-1.7q8.1 1 21-0.5z"/>
									<path id="&lt;Path&gt;" class="s12" d="m561.2 268.6q18.1 6.6 28 37.5c10 31.3 15.5 96.9 4.7 108.7q-10.9 11.8-86.1 11.9q-3.6-13.4-4-23.2q62-8.9 65.3-12.5c3.3-3.6-17.7-77.7-18.5-95.3q-0.7-17.7 10.6-27.1z"/>
									<path id="&lt;Path&gt;" class="s15" d="m589.2 306.1c10 31.3 15.5 96.9 4.7 108.7q-10.9 11.8-86.1 11.9q-1.2-4.4-2.3-10.1c13.7 0.4 40.4 0.7 58.3-2.4c25.1-4.3 27.9-12 25.7-38.1q-2.2-26-17.5-98.2q-0.3-1.1-0.5-2.2c5.7 5.5 12.7 14.9 17.7 30.4z"/>
									<g id="&lt;Group&gt;">
										<path id="&lt;Path&gt;" class="s12" d="m503.8 404c-0.2 0-0.5-0.2-0.5-0.5c-0.1-0.3 0.1-0.5 0.4-0.6c0.6-0.1 52.9-8.9 64.6-12c8.7-2.3 15.2 2 18.2 4.5c-0.9-1.9-2.8-4.6-6.5-6.6c-1.6-0.9-2.3-1.6-2.3-2.2c0-0.3 0.2-0.7 0.8-0.9c2-0.8 8.3 0.5 10.8 2.9c0.2 0.3 0.2 0.6 0 0.8c-0.2 0.2-0.6 0.2-0.8 0c-2.3-2.4-8.6-3.3-9.6-2.7c0.1 0.1 0.4 0.5 1.6 1.1c6.7 3.7 7.8 9.3 7.9 9.6c0 0.2-0.1 0.5-0.3 0.6c-0.2 0.1-0.5 0-0.7-0.2c0-0.1-7.5-8.8-18.8-5.8c-11.7 3.1-64.2 11.9-64.7 12q0 0-0.1 0z"/>
									</g>
									<g id="&lt;Group&gt;">
										<path id="&lt;Path&gt;" class="s12" d="m555.8 325c-0.2 0-0.4-0.1-0.5-0.4c-9.7-32.8-3.3-42.9-3-43.3c0.1-0.2 0.5-0.3 0.7-0.1c0.3 0.1 0.4 0.5 0.2 0.7c-0.1 0.1-6.4 10.2 3.2 42.4c0 0.3-0.1 0.6-0.4 0.7q-0.1 0-0.2 0z"/>
									</g>
								</g>
								<g id="&lt;Group&gt;">
									<path id="&lt;Path&gt;" class="s16" d="m537.7 165.7c21.7 9.1 21.2 30.3 14.3 49.4c-6.9 19.2-21.5 30.4-34 33.8c-11.2 3.1-23.4 5.5-29.8-9.7q-10.9-25.8-1.5-57.2c5.3-14 29.3-25.4 51-16.3z"/>
									<circle id="&lt;Path&gt;" class="s17" cx="491.2" cy="215.5" r="2.7"/>
									<path id="&lt;Path&gt;" class="s17" d="m492.2 204.9q4.5-0.1 3.5 4.5q-5.9-0.9-11.6 0.3q3.5-4.6 8.1-4.8z"/>
									<circle id="&lt;Path&gt;" class="s17" cx="512.8" cy="215.9" r="2.7"/>
									<path id="&lt;Path&gt;" class="s17" d="m519.5 209.8q-5.7-1-11.6 0.3q-1.3-4.5 3.3-4.6q4.5-0.2 8.3 4.3z"/>
									<path id="&lt;Path&gt;" class="s5" d="m495.2 227q4.6 1.4 9.1 0q-2 2.1-5.5 2.1q-3.5 0-3.6-2.1z"/>
									<path id="&lt;Path&gt;" class="s9" d="m496.2 233.3l12.9-0.6q-5 8.2-9.3 6.2q-4.4-2.1-3.6-5.6z"/>
									<path id="&lt;Path&gt;" class="s17" d="m527.1 186.6q-17.5 10.4-37.4 0.6q-6.1 3.1-6.1 10.7c0 5.9-11.2-8.8-7.6-22.5c3.5-13.6 38.9-22.4 51.5-20.6c12.5 1.8 14.1 8.7 16.3 12.5q10 0.9 12.8 12.8c2.6 10.8 3.1 31.9-8.3 47.7c-1.5 2.2-5 1.4-5.4-1.2c-0.2-1.4-0.3-6.6 0.6-6.4c4.7 0.9 11.2-10.4 7.2-14.9c-5.7-6.3-10.4 1.6-10.4 6.7c0 5.3-4.7-4.5-5.1-9.9c-0.4-5.3-7-5.9-8.1-15.5z"/>
								</g>
							</g>
							<g id="&lt;Group&gt;">
								<g id="&lt;Group&gt;">
									<g id="&lt;Group&gt;">
										<path id="&lt;Path&gt;" class="s18" d="m492.1 294.8c0 8.8-4.7 15.9-10.6 15.9h-5.3v-31.8h5.3c5.9 0 10.6 7.1 10.6 15.9z"/>
										<ellipse id="&lt;Path&gt;" class="s19" cx="476.2" cy="294.8" rx="10.6" ry="15.9"/>
									</g>
									<g id="&lt;Group&gt;">
										<path id="&lt;Path&gt;" class="s18" d="m481 294.8c0 5.8-3.1 10.5-7 10.5h-6.9v-21h6.9c3.9 0 7 4.7 7 10.5z"/>
										<ellipse id="&lt;Path&gt;" class="s19" cx="467.1" cy="294.8" rx="7" ry="10.5"/>
									</g>
								</g>
								<path id="&lt;Path&gt;" class="s5" d="m420.4 311.5q11-1.6 15.8-5.7c4.8-4.1 11.5-15.6 17.5-17.8c5.9-2.2 21.1-8.6 21.5-5.6q0.3 3-12.6 8.9q16.3-5.2 15.5-1.5q-0.7 3.7-15.2 7.5q16.7 0.3 13.4 2.9q-3.4 2.6-13 1.9q12.2 2.9 9.3 4.4q-3 1.5-10 0.4q-10.1 11.5-21.6 11.1l-15.2 8.2z"/>
								<path id="&lt;Path&gt;" class="s9" d="m286.8 268.7q8.3 8.4 48.4 58.8l87.5-17.7q11 3 8.8 23.5q-80.7 29.8-101.4 28c-24-2.1-65-51.1-73.9-69.4c-2.5-5.3-2.7-11.5 0.1-16.6c6.4-12.2 23.7-13.3 30.5-6.6z"/>
								<path id="&lt;Path&gt;" class="s6" d="m427.8 313.4q5.1 6.8 3.7 19.9q-80.7 29.8-101.4 28q-0.2-0.1-0.5-0.1c-1.8-1.4-3-3.8 0.6-7.4c6.6-6.6 82.7-22.6 90.2-26.6c5.2-2.8 6.9-9.9 7.4-13.8z"/>
							</g>
							<g id="&lt;Group&gt;">
								<g id="&lt;Group&gt;">
									<path id="&lt;Path&gt;" class="s19" d="m167.8 382.8h-3.9v-9c0-2.5-2-4.5-4.5-4.5h-24c-2.4 0-4.4 2-4.4 4.5v9h-3.9v-9c0-4.6 3.7-8.3 8.3-8.3h24c4.6 0 8.4 3.7 8.4 8.3z"/>
								</g>
								<path id="&lt;Path&gt;" class="s9" d="m177.1 441.7h-83.6v-61h83.6z"/>
								<path id="&lt;Path&gt;" class="s19" d="m177.1 380.7h24.6v61h-24.6z"/>
								<circle id="&lt;Path&gt;" class="s20" cx="135.3" cy="411.2" r="20.3"/>
								<g id="&lt;Group&gt;">
									<path id="&lt;Path&gt;" class="s9" d="m142.1 424.8h-13v-27.3h13z"/>
									<path id="&lt;Path&gt;" class="s9" d="m121.9 417.7v-13h27.3v13z"/>
								</g>
							</g>
							<g id="&lt;Group&gt;">
								<path id="&lt;Path&gt;" class="s19" d="m233.9 441.7h-25.9v-77.9c0-7.1 5.8-12.9 13-12.9c7.1 0 12.9 5.8 12.9 12.9z"/>
								<path id="&lt;Path&gt;" class="s18" d="m238.7 441.7h-25.9v-77.9c0-7.1 5.7-12.9 12.9-12.9c7.2 0 13 5.8 13 12.9z"/>
								<path id="&lt;Path&gt;" class="s9" d="m231 441.7h-10v-83.3h10z"/>
								<g id="&lt;Group&gt;">
									<g id="&lt;Group&gt;">
										<path id="&lt;Path&gt;" class="s7" d="m223.4 441.7h-0.6v-81.6h0.6z"/>
									</g>
									<g id="&lt;Group&gt;">
										<g id="&lt;Group&gt;">
											<path id="&lt;Path&gt;" class="s7" d="m228.6 362.4h-4.2v-0.5h4.2z"/>
										</g>
										<g id="&lt;Group&gt;">
											<path id="&lt;Path&gt;" class="s7" d="m226.9 363.9h-2.5v-0.5h2.5z"/>
										</g>
										<g id="&lt;Group&gt;">
											<path id="&lt;Path&gt;" class="s7" d="m226.9 365.4h-2.5v-0.5h2.5z"/>
										</g>
										<g id="&lt;Group&gt;">
											<path id="&lt;Path&gt;" class="s7" d="m226.9 366.9h-2.5v-0.6h2.5z"/>
										</g>
										<g id="&lt;Group&gt;">
											<path id="&lt;Path&gt;" class="s7" d="m226.9 368.4h-2.5v-0.6h2.5z"/>
										</g>
									</g>
									<g id="&lt;Group&gt;">
										<g id="&lt;Group&gt;">
											<path id="&lt;Path&gt;" class="s7" d="m228.6 369.9h-4.2v-0.5h4.2z"/>
										</g>
										<g id="&lt;Group&gt;">
											<path id="&lt;Path&gt;" class="s7" d="m226.9 371.4h-2.5v-0.5h2.5z"/>
										</g>
										<g id="&lt;Group&gt;">
											<path id="&lt;Path&gt;" class="s7" d="m226.9 372.9h-2.5v-0.5h2.5z"/>
										</g>
										<g id="&lt;Group&gt;">
											<path id="&lt;Path&gt;" class="s7" d="m226.9 374.4h-2.5v-0.6h2.5z"/>
										</g>
										<g id="&lt;Group&gt;">
											<path id="&lt;Path&gt;" class="s7" d="m226.9 375.9h-2.5v-0.6h2.5z"/>
										</g>
									</g>
									<g id="&lt;Group&gt;">
										<g id="&lt;Group&gt;">
											<path id="&lt;Path&gt;" class="s7" d="m228.6 377.4h-4.2v-0.5h4.2z"/>
										</g>
										<g id="&lt;Group&gt;">
											<path id="&lt;Path&gt;" class="s7" d="m226.9 378.9h-2.5v-0.5h2.5z"/>
										</g>
										<g id="&lt;Group&gt;">
											<path id="&lt;Path&gt;" class="s7" d="m226.9 380.4h-2.5v-0.5h2.5z"/>
										</g>
										<g id="&lt;Group&gt;">
											<path id="&lt;Path&gt;" class="s7" d="m226.9 381.9h-2.5v-0.5h2.5z"/>
										</g>
										<g id="&lt;Group&gt;">
											<path id="&lt;Path&gt;" class="s7" d="m226.9 383.4h-2.5v-0.6h2.5z"/>
										</g>
									</g>
									<g id="&lt;Group&gt;">
										<g id="&lt;Group&gt;">
											<path id="&lt;Path&gt;" class="s7" d="m228.6 384.9h-4.2v-0.5h4.2z"/>
										</g>
										<g id="&lt;Group&gt;">
											<path id="&lt;Path&gt;" class="s7" d="m226.9 386.4h-2.5v-0.5h2.5z"/>
										</g>
										<g id="&lt;Group&gt;">
											<path id="&lt;Path&gt;" class="s7" d="m226.9 387.9h-2.5v-0.5h2.5z"/>
										</g>
										<g id="&lt;Group&gt;">
											<path id="&lt;Path&gt;" class="s7" d="m226.9 389.4h-2.5v-0.5h2.5z"/>
										</g>
										<g id="&lt;Group&gt;">
											<path id="&lt;Path&gt;" class="s7" d="m226.9 390.9h-2.5v-0.5h2.5z"/>
										</g>
									</g>
									<g id="&lt;Group&gt;">
										<g id="&lt;Group&gt;">
											<path id="&lt;Path&gt;" class="s7" d="m228.6 392.4h-4.2v-0.5h4.2z"/>
										</g>
										<g id="&lt;Group&gt;">
											<path id="&lt;Path&gt;" class="s7" d="m226.9 393.9h-2.5v-0.5h2.5z"/>
										</g>
										<g id="&lt;Group&gt;">
											<path id="&lt;Path&gt;" class="s7" d="m226.9 395.4h-2.5v-0.5h2.5z"/>
										</g>
										<g id="&lt;Group&gt;">
											<path id="&lt;Path&gt;" class="s7" d="m226.9 396.9h-2.5v-0.5h2.5z"/>
										</g>
										<g id="&lt;Group&gt;">
											<path id="&lt;Path&gt;" class="s7" d="m226.9 398.4h-2.5v-0.5h2.5z"/>
										</g>
									</g>
									<g id="&lt;Group&gt;">
										<g id="&lt;Group&gt;">
											<path id="&lt;Path&gt;" class="s7" d="m228.6 399.9h-4.2v-0.5h4.2z"/>
										</g>
										<g id="&lt;Group&gt;">
											<path id="&lt;Path&gt;" class="s7" d="m226.9 401.4h-2.5v-0.5h2.5z"/>
										</g>
										<g id="&lt;Group&gt;">
											<path id="&lt;Path&gt;" class="s7" d="m226.9 402.9h-2.5v-0.5h2.5z"/>
										</g>
										<g id="&lt;Group&gt;">
											<path id="&lt;Path&gt;" class="s7" d="m226.9 404.4h-2.5v-0.5h2.5z"/>
										</g>
										<g id="&lt;Group&gt;">
											<path id="&lt;Path&gt;" class="s7" d="m226.9 405.9h-2.5v-0.5h2.5z"/>
										</g>
									</g>
									<g id="&lt;Group&gt;">
										<g id="&lt;Group&gt;">
											<path id="&lt;Path&gt;" class="s7" d="m228.6 407.4h-4.2v-0.5h4.2z"/>
										</g>
										<g id="&lt;Group&gt;">
											<path id="&lt;Path&gt;" class="s7" d="m226.9 408.9h-2.5v-0.5h2.5z"/>
										</g>
										<g id="&lt;Group&gt;">
											<path id="&lt;Path&gt;" class="s7" d="m226.9 410.4h-2.5v-0.5h2.5z"/>
										</g>
										<g id="&lt;Group&gt;">
											<path id="&lt;Path&gt;" class="s7" d="m226.9 411.9h-2.5v-0.5h2.5z"/>
										</g>
										<g id="&lt;Group&gt;">
											<path id="&lt;Path&gt;" class="s7" d="m226.9 413.4h-2.5v-0.5h2.5z"/>
										</g>
									</g>
									<g id="&lt;Group&gt;">
										<g id="&lt;Group&gt;">
											<path id="&lt;Path&gt;" class="s7" d="m228.6 414.9h-4.2v-0.5h4.2z"/>
										</g>
										<g id="&lt;Group&gt;">
											<path id="&lt;Path&gt;" class="s7" d="m226.9 416.4h-2.5v-0.5h2.5z"/>
										</g>
										<g id="&lt;Group&gt;">
											<path id="&lt;Path&gt;" class="s7" d="m226.9 417.9h-2.5v-0.5h2.5z"/>
										</g>
										<g id="&lt;Group&gt;">
											<path id="&lt;Path&gt;" class="s7" d="m226.9 419.4h-2.5v-0.5h2.5z"/>
										</g>
										<g id="&lt;Group&gt;">
											<path id="&lt;Path&gt;" class="s7" d="m226.9 420.9h-2.5v-0.5h2.5z"/>
										</g>
									</g>
									<g id="&lt;Group&gt;">
										<g id="&lt;Group&gt;">
											<path id="&lt;Path&gt;" class="s7" d="m228.6 422.4h-4.2v-0.5h4.2z"/>
										</g>
										<g id="&lt;Group&gt;">
											<path id="&lt;Path&gt;" class="s7" d="m226.9 423.9h-2.5v-0.5h2.5z"/>
										</g>
										<g id="&lt;Group&gt;">
											<path id="&lt;Path&gt;" class="s7" d="m226.9 425.4h-2.5v-0.5h2.5z"/>
										</g>
										<g id="&lt;Group&gt;">
											<path id="&lt;Path&gt;" class="s7" d="m226.9 426.9h-2.5v-0.5h2.5z"/>
										</g>
										<g id="&lt;Group&gt;">
											<path id="&lt;Path&gt;" class="s7" d="m226.9 428.4h-2.5v-0.5h2.5z"/>
										</g>
									</g>
									<g id="&lt;Group&gt;">
										<g id="&lt;Group&gt;">
											<path id="&lt;Path&gt;" class="s7" d="m228.6 430h-4.2v-0.6h4.2z"/>
										</g>
										<g id="&lt;Group&gt;">
											<path id="&lt;Path&gt;" class="s7" d="m226.9 431.4h-2.5v-0.5h2.5z"/>
										</g>
										<g id="&lt;Group&gt;">
											<path id="&lt;Path&gt;" class="s7" d="m226.9 432.9h-2.5v-0.5h2.5z"/>
										</g>
										<g id="&lt;Group&gt;">
											<path id="&lt;Path&gt;" class="s7" d="m226.9 434.4h-2.5v-0.5h2.5z"/>
										</g>
										<g id="&lt;Group&gt;">
											<path id="&lt;Path&gt;" class="s7" d="m226.9 435.9h-2.5v-0.5h2.5z"/>
										</g>
									</g>
								</g>
								<g id="&lt;Group&gt;">
									<path id="&lt;Path&gt;" class="s3" d="m281.2 441.7h-73.2v-10.3h73.2z"/>
									<path id="&lt;Path&gt;" class="s4" d="m266.6 441.7h-58.6v-10.3h58.6z"/>
								</g>
							</g>
						</g>
						<path id="&lt;Path&gt;" class="s17" d="m696.7 449.9c0 4.6-3.7 8.3-8.2 8.3h-617.9c-4.6 0-8.3-3.7-8.3-8.3c0-4.5 3.7-8.2 8.3-8.2h617.9c4.5 0 8.2 3.7 8.2 8.2z"/>
					</g>
					<g id="calender">
						<path id="&lt;Path&gt;" class="s21" d="m232.5 258.9h-86.2v-118h86.2z"/>
						<path id="&lt;Path&gt;" class="s9" d="m227.4 251.9h-76v-104h76z"/>
						<path id="&lt;Path&gt;" class="s12" d="m207.8 144.1v5.9h-18.4h-18.3v-5.9l5.7-0.8c1.8-0.3 2.9-2.2 2.4-3.9c-0.6-2 0.8-3.9 2.9-3.9h7.3h7.4c2 0 3.5 1.9 2.9 3.9c-0.6 1.7 0.6 3.6 2.4 3.9z"/>
						<g id="&lt;Group&gt;">
							<path id="&lt;Path&gt;" class="s20" d="m178 177.9h-18v-17.9h18z"/>
							<path id="&lt;Path&gt;" class="s9" d="m161.6 165.5h2.3l5.1 5.8l8.1-10l-8.1 12.3z"/>
							<g id="&lt;Group&gt;">
								<path id="&lt;Path&gt;" class="s22" d="m218.8 163h-37.7v-0.6h37.7z"/>
							</g>
							<g id="&lt;Group&gt;">
								<path id="&lt;Path&gt;" class="s22" d="m181.1 169.3v-0.7h37.7v0.7"/>
							</g>
							<g id="&lt;Group&gt;">
								<path id="&lt;Path&gt;" class="s22" d="m218.8 175.5h-37.7v-0.6h37.7z"/>
							</g>
						</g>
						<g id="&lt;Group&gt;">
							<path id="&lt;Path&gt;" class="s20" d="m178 200h-18v-17.9h18z"/>
							<path id="&lt;Path&gt;" class="s9" d="m161.6 187.7h2.3l5.1 5.8l8.1-10.1l-8.1 12.3z"/>
							<g id="&lt;Group&gt;">
								<path id="&lt;Path&gt;" class="s22" d="m218.8 185.1h-37.7v-0.6h37.7z"/>
							</g>
							<g id="&lt;Group&gt;">
								<path id="&lt;Path&gt;" class="s22" d="m218.8 190.7v0.7h-37.7v-0.7"/>
							</g>
							<g id="&lt;Group&gt;">
								<path id="&lt;Path&gt;" class="s22" d="m218.8 197.6h-37.7v-0.6h37.7z"/>
							</g>
						</g>
						<g id="&lt;Group&gt;">
							<path id="&lt;Path&gt;" class="s20" d="m178 222.2h-18v-18h18z"/>
							<path id="&lt;Path&gt;" class="s9" d="m161.6 209.8h2.3l5.1 5.8l8.1-10.1l-8.1 12.3z"/>
							<g id="&lt;Group&gt;">
								<path id="&lt;Path&gt;" class="s22" d="m218.8 207.3h-37.7v-0.7h37.7z"/>
							</g>
							<g id="&lt;Group&gt;">
								<path id="&lt;Path&gt;" class="s22" d="m218.8 212.9v0.6h-37.7v-0.6"/>
							</g>
							<g id="&lt;Group&gt;">
								<path id="&lt;Path&gt;" class="s22" d="m218.8 219.8h-37.7v-0.7h37.7z"/>
							</g>
						</g>
						<g id="&lt;Group&gt;">
							<path id="&lt;Path&gt;" class="s20" d="m178 244.3h-18v-17.9h18z"/>
							<path id="&lt;Path&gt;" class="s9" d="m161.6 231.9h2.3l5.1 5.8l8.1-10l-8.1 12.3z"/>
							<g id="&lt;Group&gt;">
								<path id="&lt;Path&gt;" class="s22" d="m218.8 229.4h-37.7v-0.7h37.7z"/>
							</g>
							<g id="&lt;Group&gt;">
								<path id="&lt;Path&gt;" class="s22" d="m218.8 235v0.7h-37.7v-0.7"/>
							</g>
							<g id="&lt;Group&gt;">
								<path id="&lt;Path&gt;" class="s22" d="m218.8 241.9h-37.7v-0.7h37.7z"/>
							</g>
						</g>
					</g>
					<g id="heart">
						<path id="&lt;Path&gt;" class="s12" d="m600.9 138.2l-24.9 21.6l-24.9-21.6c-4-5-4.7-11.8-1.9-17.6c4.6-9.4 16.7-12.2 25-5.8l1.8 1.5l1.8-1.5c8.3-6.4 20.4-3.6 25 5.8c2.8 5.8 2.1 12.6-1.9 17.6z"/>
						<g id="&lt;Group&gt;">
							<path id="&lt;Path&gt;" class="s9" d="m584.8 148.7c-0.4 0-0.7-0.2-0.8-0.6l-6.3-25.2l-7.8 21.3c-0.1 0.4-0.4 0.6-0.8 0.6c-0.3-0.1-0.6-0.3-0.7-0.7l-3.2-16.7l-3.5 8.5c-0.1 0.3-0.4 0.5-0.7 0.5h-25c-0.4 0-0.8-0.4-0.8-0.8c0-0.4 0.4-0.8 0.8-0.8h24.5l4.2-10.5c0.2-0.3 0.5-0.5 0.8-0.5c0.4 0.1 0.7 0.3 0.7 0.7l3.2 16.5l7.7-21.1c0.1-0.3 0.4-0.5 0.8-0.5c0.3 0 0.6 0.2 0.7 0.6l6.2 24.7l4.7-18.5c0.1-0.4 0.4-0.6 0.7-0.6q0 0 0 0c0.4 0 0.7 0.2 0.8 0.6l2.3 8.6h22.7c0.4 0 0.8 0.4 0.8 0.8c0 0.4-0.4 0.8-0.8 0.8h-23.3c-0.3 0-0.7-0.3-0.8-0.6l-1.6-6.3l-4.7 18.6c-0.1 0.4-0.4 0.6-0.8 0.6z"/>
						</g>
					</g>
					<g id="&lt;Group&gt;">
						<circle id="&lt;Path&gt;" class="s20" cx="608" cy="223.4" r="26.3"/>
						<g id="&lt;Group&gt;">
							<path id="&lt;Path&gt;" class="s9" d="m616.8 241.1h-16.9v-35.5h16.9z"/>
							<path id="&lt;Path&gt;" class="s9" d="m590.6 231.8v-16.9h35.5v16.9z"/>
						</g>
					</g>
					<g id="pills">
						<circle id="&lt;Path&gt;" class="s20" cx="264.8" cy="101.3" r="30.8"/>
						<g id="&lt;Group&gt;">
							<g id="&lt;Group&gt;">
								<path id="&lt;Path&gt;" class="s12" d="m266.5 85v12.3h-17.1v-12.3c0-4.7 3.8-8.6 8.5-8.6c4.8 0 8.6 3.9 8.6 8.6z"/>
								<path id="&lt;Path&gt;" class="s9" d="m257.9 118.1c-4.7 0-8.5-3.9-8.5-8.6v-12.2h17.1v12.2c0 4.7-3.8 8.6-8.6 8.6z"/>
							</g>
							<g id="&lt;Group&gt;">
								<path id="&lt;Path&gt;" class="s12" d="m283.5 106.8l-8.8 8.5l-11.9-12.4l8.9-8.4c3.4-3.3 8.8-3.2 12.1 0.2c3.2 3.4 3.1 8.9-0.3 12.1z"/>
								<path id="&lt;Path&gt;" class="s9" d="m253.7 123.5c-3.3-3.4-3.2-8.8 0.3-12.1l8.8-8.5l11.9 12.4l-8.9 8.5c-3.4 3.3-8.8 3.2-12.1-0.3z"/>
							</g>
						</g>
					</g>
					<g id="injection">
						<circle id="&lt;Path&gt;" class="s21" cx="419.3" cy="177.4" r="30"/>
						<g id="&lt;Group&gt;">
							<g id="&lt;Group&gt;">
								<path id="&lt;Path&gt;" class="s20" d="m432.8 164.3l-0.4-0.4l21.1-21.2l0.4 0.4z"/>
							</g>
							<path id="&lt;Path&gt;" class="s9" d="m398.6 212l-14-14l3.6-3.5l14 14z"/>
							<path id="&lt;Path&gt;" class="s19" d="m397.2 203.5l-4-4.1l39.7-39.7l4 4.1z"/>
							<path id="&lt;Path&gt;" class="s9" d="m409.2 196.1l-8.7-8.6l26.8-26.7l8.6 8.6z"/>
							<path id="&lt;Path&gt;" class="s19" d="m409.2 196.1l-8.7-8.6l1.3-1.2l8.6 8.6z"/>
							<path id="&lt;Path&gt;" class="s9" d="m408.3 202.4l-14-14l3.6-3.6l14 14z"/>
							<g id="&lt;Group&gt;">
								<g id="&lt;Group&gt;">
									<g id="&lt;Group&gt;">
										<path id="&lt;Path&gt;" class="s7" d="m429.9 167.5l-3.3-3.4l0.4-0.4l3.4 3.3z"/>
									</g>
									<g id="&lt;Group&gt;">
										<path id="&lt;Path&gt;" class="s7" d="m427.4 167.3l-2-2l0.4-0.4l2 2z"/>
									</g>
									<g id="&lt;Group&gt;">
										<path id="&lt;Path&gt;" class="s7" d="m426.2 168.5l-2-2l0.4-0.4l2 2z"/>
									</g>
									<g id="&lt;Group&gt;">
										<path id="&lt;Path&gt;" class="s7" d="m425 169.7l-2-2l0.4-0.4l2 2z"/>
									</g>
									<g id="&lt;Group&gt;">
										<path id="&lt;Path&gt;" class="s7" d="m423.8 170.9l-2-2l0.4-0.4l2 2z"/>
									</g>
								</g>
								<g id="&lt;Group&gt;">
									<g id="&lt;Group&gt;">
										<path id="&lt;Path&gt;" class="s7" d="m423.9 173.5l-3.4-3.4l0.5-0.4l3.3 3.4z"/>
									</g>
									<g id="&lt;Group&gt;">
										<path id="&lt;Path&gt;" class="s7" d="m421.4 173.4l-2.1-2.1l0.5-0.4l2 2z"/>
									</g>
									<g id="&lt;Group&gt;">
										<path id="&lt;Path&gt;" class="s7" d="m420.2 174.6l-2.1-2.1l0.5-0.4l2 2z"/>
									</g>
									<g id="&lt;Group&gt;">
										<path id="&lt;Path&gt;" class="s7" d="m419 175.8l-2.1-2.1l0.5-0.4l2 2z"/>
									</g>
									<g id="&lt;Group&gt;">
										<path id="&lt;Path&gt;" class="s7" d="m417.8 177l-2.1-2.1l0.5-0.4l2 2z"/>
									</g>
								</g>
								<g id="&lt;Group&gt;">
									<path id="&lt;Path&gt;" class="s7" d="m417.9 179.5l-3.4-3.3l0.4-0.5l3.4 3.4z"/>
								</g>
							</g>
							<g id="&lt;Group&gt;">
								<g id="&lt;Group&gt;">
									<g id="&lt;Group&gt;">
										<path id="&lt;Path&gt;" class="s7" d="m415.3 179.4l-2-2l0.4-0.5l2.1 2.1z"/>
									</g>
									<g id="&lt;Group&gt;">
										<path id="&lt;Path&gt;" class="s7" d="m414.1 180.6l-2-2l0.4-0.5l2.1 2.1z"/>
									</g>
									<g id="&lt;Group&gt;">
										<path id="&lt;Path&gt;" class="s7" d="m412.9 181.8l-2-2l0.4-0.5l2.1 2.1z"/>
									</g>
									<g id="&lt;Group&gt;">
										<path id="&lt;Path&gt;" class="s7" d="m411.7 183l-2-2l0.4-0.5l2.1 2.1z"/>
									</g>
								</g>
								<g id="&lt;Group&gt;">
									<g id="&lt;Group&gt;">
										<path id="&lt;Path&gt;" class="s7" d="m411.8 185.6l-3.3-3.4l0.4-0.4l3.4 3.3z"/>
									</g>
									<g id="&lt;Group&gt;">
										<path id="&lt;Path&gt;" class="s7" d="m409.3 185.4l-2-2l0.4-0.4l2 2z"/>
									</g>
									<g id="&lt;Group&gt;">
										<path id="&lt;Path&gt;" class="s7" d="m408.1 186.6l-2-2l0.4-0.4l2 2z"/>
									</g>
									<g id="&lt;Group&gt;">
										<path id="&lt;Path&gt;" class="s7" d="m406.9 187.8l-2-2l0.4-0.4l2 2z"/>
									</g>
									<g id="&lt;Group&gt;">
										<path id="&lt;Path&gt;" class="s7" d="m405.7 189l-2-2l0.4-0.4l2 2z"/>
									</g>
								</g>
							</g>
						</g>
					</g>
				</g>
			</g>
		</g>
	</g>
</svg>